<?xml version="1.0" encoding="utf-8"?>
<!-- Generator: Adobe Illustrator 26.3.1, SVG Export Plug-In . SVG Version: 6.00 Build 0)  -->
<svg version="1.1" id="Calque_1" xmlns="http://www.w3.org/2000/svg" xmlns:xlink="http://www.w3.org/1999/xlink" x="0px" y="0px"
	 viewBox="0 0 2834.6 1618.3" style="enable-background:new 0 0 2834.6 1618.3;" xml:space="preserve">
<style type="text/css">
	.st0{fill:none;}
</style>
<g>
	<path d="M163.3,755.6c39.8-41,78.5-54.6,121.8-55.1c66.3-0.8,124.6-19.9,181.8-55c73.4-45,149.1-87.8,232.4-114.2
		c6.7-2.1,12.5-6.9,29.7-16.9c-26.9-7.9-42.8-16.3-59-16.9c-135.3-4.8-270.2-22.4-405.9-14c-12.1,0.8-24.7-0.3-36.4,2.4
		c-32.8,7.4-59.6,22-70.2,57.4c-4.9,16.3-14.8,31.1-23.7,49.4c-37.4-20.7-52.6-49.3-63.1-82.7c33.1-59.3,84.7-88.2,149.5-101.2
		c38.3-7.7,75.2-13.6,112.9-0.2c1.8,0.6,4,0.2,6.1,0.4c94.8,4.8,189.7,10.2,284.5,14.1c111.1,4.5,222.2,7.6,333.4,11.5
		c3.6,0.1,7.2,3,11.6,5c-6.6,9.9-14.6,18.9-19.4,29.5c-13.5,29.8-36.2,41.8-68.1,37.6c-29.8-3.9-53.5,7-78.2,23.5
		c-88.6,59.3-178.9,116-268.6,173.8c-7.9,5.1-15.6,10.5-31,21c15.8,6.2,24.2,8.8,32,12.6c98.1,47.8,180.5,108.1,221.9,216.4
		c31.9,83.4,77.8,161.7,119.3,241.3c31.5,60.4,83.3,102.8,139.2,139.5c106.5,70,224.8,104.8,352.1,111.7c37.3,2,74.6,8.2,111.9,8.3
		c31.9,0.1,64-4.7,95.7-9.2c91.3-12.7,183.4-18.6,272.6-45.6c58.8-17.8,107-51.1,143.8-95.4c57.8-69.6,134.5-114.4,204-168.7
		c2.9-2.3,7.6-3.2,11.5-3.1c3.8,0.1,7.5,2.3,13.9,4.4c16.5,56.9,1.2,108.7-45.1,143.4c-67.4,50.4-139.3,95.4-211.9,138.4
		c-64.6,38.3-137.6,53.3-211.9,65.1c-112.1,17.8-224.4,28.6-337.7,21.9c-110.4-6.6-221.5-15.4-327.3-48.8
		c-143.1-45.1-258.6-127.3-334.1-260.7c-34.7-61.3-65.1-123.6-84.5-191c-13.3-46.6-31.9-90.8-63.1-128.2
		c-33.8-40.6-74.2-69.5-128.7-83.5c-82.5-21.2-164.2-39.2-250.1-33.3C209.3,761.6,191.3,757.9,163.3,755.6z"/>
	<path d="M1468.3,830c4.1-44.6,8.4-83.9,11-123.3c2.4-35.8,4.3-71.8,4.3-107.7c0-124.4,23.8-245,62.8-362.4
		c12.3-37.1,33.4-72.1,54.3-105.6c20.1-32.3,50.7-49.1,91.3-47c37.2,1.9,74.5,0.4,118.8,0.4c-10.3,22-19,40.6-29.2,62.5
		c-21.4,0-41.6,1.9-61.3-0.4c-38.7-4.5-61,16.4-77.1,46.3c-26.5,49.4-44.7,101.8-55.3,156.9c-16.7,86.4-23.3,173.1-15.9,263.6
		c31-10.7,59.2-21.2,87.8-30.3c37.5-11.9,71.3,3.6,80.1,41c1.8,7.6,5.6,15,9.4,22c32,58.9,6.5,105.8-28.8,151.9
		c-22.1-8.7-16.9-23.4-12.1-35.9c11.7-30.5,2.9-59.2-7.2-87.3c-8.4-23.4-24.2-30.2-48-23c-28.1,8.5-51,25.8-66.3,49.8
		c-15.9,25-29.3,52.1-40.2,79.7C1529,826.1,1530.3,826.6,1468.3,830z"/>
	<path d="M1108.8,1213.2c-17.3-18.3-26.9-28.3-40.6-42.8c16.5-38.8,33.3-78.6,50.4-118.3c27-62.6,46.9-126.7,48.6-195.5
		c0.8-31.9,4.5-63.7,5.4-95.6c0.3-11.2-3.9-22.4-6.2-34.6c-15.5-1.8-29.1-3.5-43.6-5.2c-1.9-6.5-5.6-12.4-4.7-17.4
		c7.8-39.9,27.9-74.1,51.5-108.9c40.1-5.3,79.9-11,107.5,21.6c10.4-3.5,16.1-3.6,17.6-6.2c16.4-27.6,38.9-40.2,70.7-28.2
		c33.7,12.7,59.1,50.6,57.3,83.3c-4.4,78.7-78.9,156.6-157.8,164.7c-13.8,1.4-27.7,2-39.8,2.8c-13.9,66.3-25,130.5-41.2,193.3
		C1167.8,1088.6,1151.7,1152,1108.8,1213.2z M1347.2,693.9c-46.8-22.8-66.8-26-104.8-18.3c-34.7,7.1-38.4,11.1-37.8,40.6
		c0.7,32.9,14.7,53.1,42,54.8c21.3,1.3,42.4,2.9,63.4-10.7C1334.5,744.4,1341.9,722.3,1347.2,693.9z"/>
	<path d="M1976,711.8c43.2-37.1,72.6-85,129.2-106.4c8.2,33.1-0.5,58.7-13.3,82.3c-14.3,26.3-31.7,50.9-47.8,76.3
		c-34.3,54-71.5,106.5-102,162.6c-25.1,45.9-62.8,69.1-119,87.6c7.1-15.9,10.2-24.1,14.3-31.7c19-35.2,36.7-71.3,58-105.1
		c38.4-61.1,18.7-116.8-10.4-178.3c-27.3,3-52.6,5.8-81.4,8.9c-1.3-11.8-4.9-25.3-4-38.4c3.1-41.4,28.7-61.4,69.5-53.6
		c36.9,7,68.2,24.2,87.7,57.8C1963.4,685.1,1968.7,697.3,1976,711.8z"/>
	<path d="M865.2,751.9c13.9,16,28.3,32.7,42.6,49.2c-21.9,34.1-35.9,41.1-65.6,33.5c-40.3-10.3-50.5-23.8-54.1-60.3
		c-10.8-108.6,67.1-177.2,158-205.6c73.5-23,75.1-19.5,74.7,54.7c-0.2,26,1,52.2-1.2,78.1c-2.5,31.1,3.4,55.4,37.4,65.7
		c5.3,1.6,9.3,7.4,14.6,11.9c-1,59.4-53.4,48-86.7,62.1c-39.7-15.5-53.9-44.6-49.5-85.3c3.6-33.2,5.3-66.6,7.9-99.9
		C896.6,653.1,879,674.4,865.2,751.9z"/>
	<path d="M2800.3,791c-9.9,59.9-57.1,50.5-87.8,63.1c-42.2-10.8-54-37.8-51.3-77c2.7-39.4,0.6-79.1,0.6-119.8
		c-22.1,2.9-38.6,12.2-47,32c-8.5,19.9-21.1,40.3-21.6,60.7c-0.3,14.6,15.9,29.9,25.8,44.2c14,20.4,10,42.2-11.8,47.9
		c-23.6,6.1-48.1,7.2-69.3-9.2c-19.8-15.4-29.7-31.2-27.5-60.5c7.3-100,48.1-155.8,150.3-191.8c3.8-1.3,8-1.3,11.9-2.4
		c68.4-20.6,77.2-12.9,67.9,57.4c-2.3,17.7,0.7,36.2-2,53.9C2730.5,739.6,2745.9,775.8,2800.3,791z"/>
	<path d="M2294.8,649.9c21.9-22.7,36.6-38.5,51.9-53.7c25.2-25,53.6-23.8,77.5,3.1c15,16.9,17.8,23.7,28.5,70.8
		c-34.6,16.3-59.9-16-92-18.2c-30.9,14-38.9,44.6-47.5,72.3c-13,42.3-30.1,81.8-58.6,119.2c-31-3.8-63.4-4.8-76.1-47.9
		c17.2-22.3,36-46.8,41.3-79.7c6.5-40.5,7.7-42.7-32.2-52.8c-5.7-1.4-11.3-3.4-16.8-5.6c-1.6-0.6-2.6-2.8-6.3-7
		c2.1-32.7,26.1-50.7,55-59.5C2260.3,578.5,2274.4,612.8,2294.8,649.9z"/>
	<path class="st0" d="M1347.2,693.9c-5.3,28.4-12.7,50.5-37.3,66.4c-21,13.6-42,12-63.4,10.7c-27.3-1.7-41.3-21.9-42-54.8
		c-0.6-29.5,3.1-33.5,37.8-40.6C1280.4,667.9,1300.4,671.1,1347.2,693.9z"/>
</g>
</svg>
