<?xml version="1.0" encoding="utf-8"?>
<!-- Generator: Adobe Illustrator 24.2.3, SVG Export Plug-In . SVG Version: 6.00 Build 0)  -->
<svg version="1.1" id="Calque_1" xmlns="http://www.w3.org/2000/svg" xmlns:xlink="http://www.w3.org/1999/xlink" x="0px" y="0px"
	 viewBox="0 0 2834.65 2834.65" style="enable-background:new 0 0 2834.65 2834.65;" xml:space="preserve">
<style type="text/css">
	.st0{fill:#FFFFFF;}
</style>
<g>
	<path class="st0" d="M1648,1597.5c-372,0-744,0-1116,0c0-120.23,0-240.47,0-360.7c372,0,744,0,1116,0
		C1648,1357.03,1648,1477.26,1648,1597.5z M552.55,1402.94c5.56,0.47,9.14,1.22,12.65,0.98c17.08-1.18,33.34,2.44,49.75,6.7
		c10.84,2.81,18.87,8.61,25.6,16.78c6.2,7.53,9.9,16.42,12.55,25.78c3.84,13.56,9.89,26.07,16.8,38.41
		c15.02,26.82,38,43.34,66.47,52.42c21.04,6.71,43.15,8.49,65.12,9.81c22.53,1.35,44.88-0.83,67.18-4.41
		c14.77-2.37,29.3-5.39,42.15-13.1c14.44-8.66,28.75-17.7,42.16-27.83c9.23-6.97,12.27-17.39,8.98-28.82
		c-1.28-0.43-2.02-0.87-2.77-0.88c-0.76-0.02-1.7,0.17-2.28,0.62c-13.83,10.92-29.07,19.92-40.58,33.92
		c-7.32,8.9-16.91,15.61-28.61,19.18c-17.75,5.43-36.08,6.61-54.24,9.16c-6.32,0.89-12.7,1.86-19.05,1.84
		c-7.42-0.02-14.83-1.27-22.26-1.68c-25.32-1.39-48.88-8.39-70.06-22.47c-11.11-7.39-21.42-15.92-27.69-28.06
		c-8.26-16.01-17.38-31.75-23.74-48.52c-8.25-21.77-24.64-33.9-44.15-43.5c-1.55-0.76-3.22-1.29-6.36-2.53
		c3.07-2.1,4.6-3.19,6.17-4.21c17.83-11.61,35.8-23.03,53.43-34.94c4.91-3.32,9.63-5.51,15.56-4.72c6.36,0.85,10.88-1.57,13.56-7.56
		c0.94-2.12,2.54-3.94,3.86-5.93c-0.89-0.4-1.59-0.98-2.31-1.01c-22.11-0.79-44.22-1.41-66.32-2.32
		c-18.88-0.77-37.74-1.87-56.61-2.83c-0.4-0.02-0.84,0.06-1.2-0.07c-7.5-2.68-14.85-1.49-22.46,0.05
		c-12.89,2.61-23.15,8.42-29.73,20.34c2.08,6.72,5.11,12.47,12.55,16.63c1.79-3.67,3.75-6.65,4.72-9.92
		c2.12-7.12,7.46-10.06,13.97-11.55c2.33-0.53,4.82-0.32,7.23-0.47c27.01-1.69,53.84,1.85,80.76,2.82
		c3.22,0.12,6.39,1.79,11.74,3.39c-3.43,1.99-4.58,2.96-5.91,3.39c-16.57,5.31-31.64,13.9-46.23,22.96
		c-11.37,7.06-22.97,10.91-36.17,11.06C568.18,1391.95,560.47,1394.69,552.55,1402.94z M812.18,1417.9
		c12.32-0.68,12.07-0.77,15.59-9.78c2.16-5.55,4.83-10.99,8-16.02c3.03-4.82,7.61-8.29,13.19-10.01c4.74-1.46,7.89-0.08,9.56,4.62
		c2,5.65,3.75,11.41,1.43,17.55c-0.95,2.5-1.99,5.47,2.41,7.21c7.03-9.28,12.11-18.71,5.74-30.55c-0.76-1.41-1.5-2.89-1.86-4.42
		c-1.77-7.51-8.48-10.63-15.94-8.23c-5.7,1.83-11.31,3.93-17.47,6.09c-1.47-18.21-0.15-35.64,3.17-53
		c2.12-11.09,5.73-21.62,11.01-31.55c3.19-6.01,7.64-10.2,15.33-9.31c3.92,0.46,7.94,0.08,12.19,0.08
		c2.04-4.41,3.77-8.15,5.81-12.57c-8.82,0-16.24,0.31-23.64-0.08c-8.09-0.43-14.18,2.95-18.17,9.44
		c-4.16,6.75-8.35,13.77-10.8,21.24c-7.74,23.62-12.5,47.85-12.49,72.87c0,7.22-0.37,14.45-0.85,21.66
		C813.85,1401.03,812.99,1408.93,812.18,1417.9z M740.64,1494.95c8.55-12.3,11.75-25.04,14.96-37.61
		c3.23-12.64,5.43-25.54,8.2-38.87c2.41-0.17,5.17-0.28,7.91-0.56c15.7-1.63,30.53-17.3,31.4-33.12c0.36-6.59-4.7-14.21-11.4-16.75
		c-6.33-2.41-10.82,0.11-14.07,5.67c-0.3,0.51-1.42,0.54-3.49,1.24c-5.49-6.55-13.4-5.4-21.38-4.34c-4.71,7-8.71,13.88-10.25,21.9
		c-0.19,1,0.55,2.19,0.93,3.5c2.88,0.35,5.58,0.67,8.67,1.04c0.46,2.45,1.3,4.72,1.24,6.96c-0.18,6.41-0.93,12.81-1.08,19.22
		c-0.34,13.84-4.3,26.73-9.67,39.31c-3.41,7.98-6.74,16-10.02,23.79C735.3,1489.25,737.2,1491.27,740.64,1494.95z M913.17,1394.14
		c-1.44-2.92-2.5-5.37-3.82-7.67c-3.87-6.74-10.12-10.19-17.45-11.61c-8.12-1.57-13.22,2.45-13.83,10.77
		c-0.19,2.64,0.52,5.35,0.79,7.73c5.74-0.64,10.76-1.19,16.19-1.8c5.8,12.36,9.71,23.57,2.07,35.85
		c-4.23,6.81-7.75,14.06-11.54,21.14c-0.82,1.53-1.43,3.18-2.84,6.38c11.18-3.72,18.69-8.38,23.68-17.62
		c6.08-11.27,13.48-21.82,20.3-32.68c3.2-5.09,6.66-10.05,9.5-15.33c2.56-4.76,4.28-9.91,2.65-16.55
		C927.6,1377.05,921.77,1386.68,913.17,1394.14z M692.19,1402.2c2.75-15.58,6.26-19.87,15.53-19.27
		c-0.51,6.69-0.85,13.41-1.56,20.08c-0.88,8.19,1.96,14.05,9.86,17.16c6.64-2.84,17.06-0.56,17.25-12.49
		c-1.07-0.91-1.86-2.08-2.91-2.4c-6.77-2.06-7.96-6.95-7.45-13.2c0.42-5.21,0.2-10.47,0.23-15.71c0.09-14.91-0.24-15.62-14.86-10.99
		c-18.07,5.72-33.58,19.51-31.42,41.34c0.72,7.32,2.76,10.04,10.77,12.12c5.91,1.53,8.7,0.11,13.05-6.74
		C697.82,1408.77,694.95,1405.42,692.19,1402.2z M1077.17,1410.07c-10.83-3.06-13.9-10.33-12.34-20.42
		c0.55-3.54-0.06-7.26,0.4-10.83c1.85-14.14,0.1-15.7-13.52-11.55c-0.77,0.23-1.61,0.23-2.36,0.49
		c-20.32,7.25-28.44,18.47-29.9,38.56c-0.43,5.89,1.53,9.07,5.48,12.16c4.22,3.31,9.09,3.08,13.79,1.85
		c4.35-1.13,5.15-5.53,2.35-9.62c-1.96-2.88-5.19-5.96-5.13-8.89c0.09-4.1,2.6-8.2,4.29-12.21c1.68-3.97,4.96-5.84,9.36-6.43
		c0,8.18,0.42,16.17-0.12,24.08c-0.53,7.89,1.81,13.32,10.21,15.49C1065.82,1420.24,1075.2,1422.12,1077.17,1410.07z M976.61,1381.7
		c-4.07-7.46-6.87-14.36-14.96-11.86c-5.74,1.78-10.52,5.39-10.94,11.97c0.72,0.83,0.92,1.27,1.25,1.4c1.09,0.44,2.2,0.83,3.34,1.12
		c7.92,2.03,7.69,2.46,6.4,10.61c-1.05,6.63-4.8,11.55-8.22,16.03c2.52,8.66,8.97,8.86,15.14,9.63c5.67-7.51,9.07-15.46,11.66-23.96
		c1.69-5.56,3.3-11.7,9.44-14.53c6.39,0.43,11.43,6.94,18.31,3.65c-2.13-9.49-2.68-10.85-5.67-14.25
		c-4.75-5.39-10.4-5.65-15.41-0.62C983.9,1373.97,980.97,1377.14,976.61,1381.7z"/>
	<path class="st0" d="M552.55,1402.94c7.91-8.25,15.62-10.99,24.23-11.09c13.2-0.16,24.8-4.01,36.17-11.06
		c14.59-9.06,29.66-17.65,46.23-22.96c1.33-0.43,2.48-1.4,5.91-3.39c-5.35-1.6-8.51-3.27-11.74-3.39
		c-26.92-0.96-53.75-4.51-80.76-2.82c-2.42,0.15-4.91-0.06-7.23,0.47c-6.52,1.49-11.85,4.43-13.97,11.55
		c-0.98,3.27-2.94,6.25-4.72,9.92c-7.44-4.16-10.47-9.9-12.55-16.63c6.58-11.92,16.85-17.73,29.73-20.34
		c7.61-1.54,14.96-2.73,22.46-0.05c0.36,0.13,0.8,0.05,1.2,0.07c18.87,0.96,37.73,2.05,56.61,2.83c22.1,0.91,44.22,1.52,66.32,2.32
		c0.72,0.03,1.42,0.61,2.31,1.01c-1.32,1.99-2.91,3.81-3.86,5.93c-2.68,5.99-7.2,8.41-13.56,7.56c-5.94-0.79-10.65,1.4-15.56,4.72
		c-17.63,11.91-35.6,23.33-53.43,34.94c-1.57,1.02-3.1,2.11-6.17,4.21c3.15,1.24,4.81,1.76,6.36,2.53
		c19.51,9.61,35.91,21.73,44.15,43.5c6.35,16.77,15.47,32.51,23.74,48.52c6.27,12.14,16.57,20.67,27.69,28.06
		c21.18,14.08,44.73,21.08,70.06,22.47c7.43,0.41,14.84,1.65,22.26,1.68c6.35,0.02,12.73-0.95,19.05-1.84
		c18.16-2.56,36.49-3.74,54.24-9.16c11.7-3.58,21.29-10.28,28.61-19.18c11.5-14,26.75-23,40.58-33.92c0.58-0.46,1.52-0.64,2.28-0.62
		c0.75,0.02,1.5,0.45,2.77,0.88c3.29,11.44,0.24,21.85-8.98,28.82c-13.41,10.14-27.72,19.18-42.16,27.83
		c-12.85,7.71-27.38,10.72-42.15,13.1c-22.3,3.58-44.65,5.76-67.18,4.41c-21.97-1.32-44.07-3.1-65.12-9.81
		c-28.47-9.07-51.44-25.59-66.47-52.42c-6.91-12.34-12.96-24.85-16.8-38.41c-2.65-9.36-6.35-18.26-12.55-25.78
		c-6.73-8.17-14.77-13.97-25.6-16.78c-16.41-4.26-32.67-7.87-49.75-6.7C561.7,1404.16,558.12,1403.41,552.55,1402.94z"/>
	<path class="st0" d="M812.18,1417.9c0.81-8.98,1.67-16.87,2.2-24.79c0.48-7.21,0.85-14.44,0.85-21.66
		c-0.01-25.02,4.74-49.25,12.49-72.87c2.45-7.47,6.64-14.49,10.8-21.24c3.99-6.49,10.09-9.87,18.17-9.44
		c7.39,0.39,14.82,0.08,23.64,0.08c-2.05,4.43-3.77,8.16-5.81,12.57c-4.25,0-8.27,0.38-12.19-0.08c-7.69-0.9-12.14,3.3-15.33,9.31
		c-5.28,9.93-8.89,20.46-11.01,31.55c-3.32,17.36-4.64,34.8-3.17,53c6.16-2.16,11.77-4.26,17.47-6.09
		c7.46-2.39,14.18,0.73,15.94,8.23c0.36,1.54,1.11,3.02,1.86,4.42c6.37,11.84,1.3,21.27-5.74,30.55c-4.4-1.74-3.35-4.71-2.41-7.21
		c2.32-6.14,0.57-11.9-1.43-17.55c-1.66-4.7-4.82-6.07-9.56-4.62c-5.58,1.72-10.16,5.2-13.19,10.01c-3.17,5.03-5.83,10.48-8,16.02
		C824.25,1417.13,824.5,1417.23,812.18,1417.9z"/>
	<path class="st0" d="M740.64,1494.95c-3.45-3.67-5.34-5.69-8.07-8.6c3.28-7.8,6.62-15.81,10.02-23.79
		c5.37-12.58,9.33-25.47,9.67-39.31c0.16-6.41,0.9-12.81,1.08-19.22c0.06-2.24-0.77-4.51-1.24-6.96c-3.09-0.37-5.79-0.7-8.67-1.04
		c-0.37-1.32-1.12-2.5-0.93-3.5c1.54-8.02,5.54-14.9,10.25-21.9c7.98-1.06,15.89-2.21,21.38,4.34c2.07-0.71,3.19-0.73,3.49-1.24
		c3.25-5.56,7.74-8.08,14.07-5.67c6.7,2.55,11.76,10.17,11.4,16.75c-0.87,15.82-15.7,31.48-31.4,33.12c-2.74,0.29-5.5,0.4-7.91,0.56
		c-2.77,13.33-4.97,26.23-8.2,38.87C752.39,1469.91,749.19,1482.65,740.64,1494.95z M788.08,1390.54
		c-9.31-4.58-13.29-5.24-20.86-3.67c-6.9,1.43-7.64,2.23-7.52,8.17c0.13,6.61,2.93,10.68,8.35,11.02c4.24,0.26,8.44,0.57,12.6-2.15
		C785.55,1400.7,787.02,1396.26,788.08,1390.54z"/>
	<path class="st0" d="M913.17,1394.14c8.6-7.46,14.43-17.08,25.71-21.39c1.62,6.65-0.09,11.79-2.65,16.55
		c-2.85,5.28-6.3,10.24-9.5,15.33c-6.82,10.86-14.22,21.42-20.3,32.68c-4.98,9.24-12.5,13.9-23.68,17.62
		c1.41-3.2,2.02-4.85,2.84-6.38c3.79-7.08,7.31-14.33,11.54-21.14c7.63-12.28,3.73-23.49-2.07-35.85c-5.43,0.6-10.46,1.16-16.19,1.8
		c-0.27-2.38-0.98-5.09-0.79-7.73c0.61-8.32,5.71-12.34,13.83-10.77c7.34,1.42,13.58,4.87,17.45,11.61
		C910.67,1388.77,911.73,1391.22,913.17,1394.14z"/>
	<path class="st0" d="M692.19,1402.2c2.76,3.22,5.64,6.57,8.48,9.89c-4.35,6.85-7.14,8.27-13.05,6.74
		c-8.01-2.07-10.05-4.79-10.77-12.12c-2.15-21.83,13.35-35.62,31.42-41.34c14.62-4.62,14.95-3.92,14.86,10.99
		c-0.03,5.24,0.19,10.5-0.23,15.71c-0.51,6.26,0.68,11.15,7.45,13.2c1.05,0.32,1.84,1.49,2.91,2.4
		c-0.19,11.94-10.61,9.66-17.25,12.49c-7.9-3.11-10.73-8.97-9.86-17.16c0.71-6.67,1.06-13.38,1.56-20.08
		C698.44,1382.33,694.94,1386.62,692.19,1402.2z"/>
	<path class="st0" d="M1077.17,1410.07c-1.97,12.05-11.35,10.16-17.47,12.7c-8.4-2.17-10.74-7.6-10.21-15.49
		c0.53-7.92,0.12-15.9,0.12-24.08c-4.4,0.59-7.68,2.46-9.36,6.43c-1.69,4.01-4.2,8.1-4.29,12.21c-0.06,2.93,3.16,6.01,5.13,8.89
		c2.79,4.09,1.99,8.49-2.35,9.62c-4.7,1.23-9.56,1.46-13.79-1.85c-3.95-3.09-5.91-6.26-5.48-12.16c1.46-20.1,9.58-31.32,29.9-38.56
		c0.75-0.27,1.59-0.26,2.36-0.49c13.61-4.15,15.36-2.6,13.52,11.55c-0.47,3.57,0.15,7.28-0.4,10.83
		C1063.27,1399.74,1066.34,1407.02,1077.17,1410.07z"/>
	<path class="st0" d="M976.61,1381.7c4.35-4.56,7.29-7.73,10.33-10.79c5-5.04,10.66-4.78,15.41,0.62c2.99,3.4,3.54,4.76,5.67,14.25
		c-6.88,3.29-11.92-3.22-18.31-3.65c-6.14,2.82-7.75,8.97-9.44,14.53c-2.59,8.5-5.99,16.45-11.66,23.96
		c-6.17-0.77-12.62-0.97-15.14-9.63c3.42-4.48,7.17-9.4,8.22-16.03c1.3-8.15,1.52-8.58-6.4-10.61c-1.13-0.29-2.25-0.68-3.34-1.12
		c-0.32-0.13-0.52-0.57-1.25-1.4c0.42-6.58,5.2-10.19,10.94-11.97C969.74,1367.34,972.54,1374.24,976.61,1381.7z"/>
	<path class="st0" d="M788.08,1390.54c-1.06,5.71-2.53,10.16-7.42,13.36c-4.17,2.73-8.36,2.42-12.6,2.15
		c-5.42-0.34-8.22-4.41-8.35-11.02c-0.12-5.93,0.62-6.74,7.52-8.17C774.79,1385.31,778.76,1385.96,788.08,1390.54z"/>
</g>
</svg>
