<?xml version="1.0" encoding="utf-8"?>
<!-- Generator: Adobe Illustrator 24.2.3, SVG Export Plug-In . SVG Version: 6.00 Build 0)  -->
<svg version="1.1" id="Calque_1" xmlns="http://www.w3.org/2000/svg" xmlns:xlink="http://www.w3.org/1999/xlink" x="0px" y="0px"
	 viewBox="0 0 141.73 85.04" style="enable-background:new 0 0 141.73 85.04;" xml:space="preserve">
<style type="text/css">
	.st0{fill:#FFFFFF;}
</style>
<g>
	<path class="st0" d="M9.06,41.06c1.91-1.99,3.77-2.65,5.85-2.68c3.19-0.04,5.99-0.97,8.73-2.67c3.52-2.19,7.16-4.26,11.16-5.54
		c0.32-0.1,0.6-0.34,1.43-0.82c-1.29-0.39-2.06-0.79-2.83-0.82c-6.5-0.23-12.98-1.09-19.5-0.68c-0.58,0.04-1.19-0.01-1.75,0.11
		c-1.57,0.36-2.86,1.07-3.37,2.79c-0.24,0.79-0.71,1.51-1.14,2.4c-1.8-1-2.53-2.39-3.03-4.01c1.59-2.88,4.07-4.28,7.18-4.91
		c1.84-0.37,3.61-0.66,5.42-0.01c0.09,0.03,0.19,0.01,0.29,0.02c4.56,0.23,9.11,0.5,13.67,0.68c5.34,0.22,10.68,0.37,16.01,0.56
		c0.17,0.01,0.34,0.15,0.56,0.24c-0.32,0.48-0.7,0.92-0.93,1.43c-0.65,1.45-1.74,2.03-3.27,1.83c-1.43-0.19-2.57,0.34-3.76,1.14
		c-4.26,2.88-8.6,5.63-12.9,8.44c-0.38,0.25-0.75,0.51-1.49,1.02c0.76,0.3,1.16,0.43,1.54,0.61c4.71,2.32,8.67,5.25,10.66,10.5
		c1.53,4.05,3.74,7.85,5.73,11.72c1.51,2.93,4,4.99,6.69,6.77c5.11,3.4,10.8,5.09,16.92,5.43c1.79,0.1,3.58,0.4,5.37,0.41
		c1.53,0.01,3.07-0.23,4.6-0.45c4.38-0.62,8.81-0.9,13.1-2.21c2.82-0.86,5.14-2.48,6.91-4.63c2.78-3.38,6.46-5.55,9.8-8.19
		c0.14-0.11,0.37-0.15,0.55-0.15c0.18,0,0.36,0.11,0.67,0.21c0.79,2.76,0.06,5.28-2.17,6.96c-3.24,2.45-6.69,4.63-10.18,6.72
		c-3.1,1.86-6.61,2.59-10.18,3.16c-5.38,0.86-10.78,1.39-16.22,1.06c-5.3-0.32-10.64-0.75-15.72-2.37
		c-6.87-2.19-12.42-6.18-16.05-12.66c-1.67-2.98-3.13-6-4.06-9.27c-0.64-2.26-1.53-4.41-3.03-6.23c-1.63-1.97-3.57-3.37-6.18-4.05
		c-3.96-1.03-7.89-1.9-12.01-1.62C11.27,41.35,10.41,41.17,9.06,41.06z"/>
	<path class="st0" d="M71.75,44.67c0.2-2.17,0.4-4.07,0.53-5.99c0.12-1.74,0.21-3.49,0.2-5.23c0-6.04,1.15-11.89,3.01-17.59
		c0.59-1.8,1.6-3.5,2.61-5.13c0.96-1.57,2.44-2.38,4.39-2.28c1.78,0.09,3.58,0.02,5.71,0.02c-0.49,1.07-0.91,1.97-1.4,3.04
		c-1.03,0-2,0.09-2.94-0.02c-1.86-0.22-2.93,0.8-3.7,2.25c-1.27,2.4-2.15,4.94-2.66,7.62c-0.8,4.19-1.12,8.4-0.76,12.8
		c1.49-0.52,2.84-1.03,4.22-1.47c1.8-0.58,3.42,0.18,3.85,1.99c0.09,0.37,0.27,0.73,0.45,1.07c1.54,2.86,0.31,5.14-1.38,7.38
		c-1.06-0.42-0.81-1.14-0.58-1.74c0.56-1.48,0.14-2.87-0.35-4.24c-0.4-1.13-1.16-1.47-2.31-1.11c-1.35,0.42-2.45,1.25-3.18,2.42
		c-0.76,1.21-1.41,2.53-1.93,3.87C74.67,44.48,74.73,44.51,71.75,44.67z"/>
	<path class="st0" d="M54.48,63.27c-0.83-0.89-1.29-1.37-1.95-2.08c0.79-1.88,1.6-3.82,2.42-5.74c1.3-3.04,2.25-6.15,2.33-9.49
		c0.04-1.55,0.22-3.09,0.26-4.64c0.02-0.54-0.19-1.09-0.3-1.68c-0.75-0.09-1.4-0.17-2.09-0.25c-0.09-0.32-0.27-0.6-0.22-0.85
		c0.37-1.94,1.34-3.6,2.48-5.29c1.93-0.26,3.84-0.53,5.16,1.05c0.5-0.17,0.77-0.18,0.84-0.3c0.79-1.34,1.87-1.95,3.4-1.37
		c1.62,0.61,2.84,2.45,2.75,4.04c-0.21,3.82-3.79,7.6-7.58,8c-0.66,0.07-1.33,0.1-1.91,0.14c-0.67,3.22-1.2,6.33-1.98,9.39
		C57.32,57.23,56.54,60.3,54.48,63.27z M65.93,38.06c-2.25-1.11-3.21-1.26-5.04-0.89c-1.67,0.34-1.85,0.54-1.82,1.97
		c0.03,1.6,0.71,2.58,2.02,2.66c1.02,0.06,2.04,0.14,3.04-0.52C65.32,40.52,65.68,39.44,65.93,38.06z"/>
	<path class="st0" d="M96.14,38.93c2.08-1.8,3.49-4.12,6.21-5.17c0.39,1.6-0.02,2.85-0.64,4c-0.69,1.28-1.52,2.47-2.29,3.7
		c-1.65,2.62-3.43,5.17-4.9,7.89c-1.2,2.23-3.02,3.36-5.72,4.25c0.34-0.77,0.49-1.17,0.69-1.54c0.92-1.71,1.76-3.46,2.79-5.1
		c1.84-2.96,0.9-5.67-0.5-8.66c-1.31,0.15-2.52,0.28-3.91,0.43c-0.06-0.57-0.24-1.23-0.19-1.87c0.15-2.01,1.38-2.98,3.34-2.6
		c1.77,0.34,3.28,1.18,4.21,2.8C95.53,37.63,95.79,38.23,96.14,38.93z"/>
	<path class="st0" d="M42.78,40.88c0.67,0.78,1.36,1.59,2.05,2.39c-1.05,1.65-1.73,2-3.15,1.63c-1.93-0.5-2.43-1.16-2.6-2.93
		c-0.52-5.27,3.22-8.6,7.59-9.98c3.53-1.12,3.61-0.95,3.59,2.65c-0.01,1.26,0.05,2.53-0.06,3.79c-0.12,1.51,0.16,2.69,1.8,3.19
		c0.25,0.08,0.44,0.36,0.7,0.58c-0.05,2.88-2.56,2.33-4.17,3.02c-1.91-0.75-2.59-2.17-2.38-4.14c0.17-1.61,0.25-3.23,0.38-4.85
		C44.29,36.08,43.44,37.12,42.78,40.88z"/>
	<path class="st0" d="M135.73,42.78c-0.48,2.91-2.74,2.45-4.22,3.07c-2.03-0.52-2.59-1.84-2.47-3.74c0.13-1.91,0.03-3.84,0.03-5.82
		c-1.06,0.14-1.86,0.59-2.26,1.55c-0.41,0.97-1.01,1.96-1.04,2.95c-0.02,0.71,0.76,1.45,1.24,2.15c0.67,0.99,0.48,2.05-0.57,2.32
		c-1.13,0.3-2.31,0.35-3.33-0.45c-0.95-0.75-1.43-1.51-1.32-2.94c0.35-4.85,2.31-7.56,7.22-9.31c0.18-0.06,0.38-0.06,0.57-0.12
		c3.29-1,3.71-0.63,3.26,2.79c-0.11,0.86,0.04,1.76-0.1,2.61C132.38,40.28,133.12,42.04,135.73,42.78z"/>
	<path class="st0" d="M111.45,35.93c1.05-1.1,1.76-1.87,2.49-2.61c1.21-1.22,2.57-1.15,3.72,0.15c0.72,0.82,0.85,1.15,1.37,3.44
		c-1.66,0.79-2.88-0.78-4.42-0.88c-1.48,0.68-1.87,2.17-2.28,3.51c-0.63,2.05-1.45,3.97-2.82,5.79c-1.49-0.19-3.05-0.23-3.65-2.32
		c0.83-1.08,1.73-2.27,1.99-3.87c0.31-1.97,0.37-2.07-1.54-2.56c-0.27-0.07-0.54-0.16-0.81-0.27c-0.08-0.03-0.13-0.14-0.3-0.34
		c0.1-1.59,1.26-2.46,2.64-2.89C109.79,32.46,110.47,34.13,111.45,35.93z"/>
</g>
</svg>
