<?xml version="1.0" encoding="utf-8"?>
<!-- Generator: Adobe Illustrator 26.0.2, SVG Export Plug-In . SVG Version: 6.00 Build 0)  -->
<svg version="1.1" id="Calque_1" xmlns="http://www.w3.org/2000/svg" xmlns:xlink="http://www.w3.org/1999/xlink" x="0px" y="0px"
	 viewBox="0 0 209 250" style="enable-background:new 0 0 209 250;" xml:space="preserve">
<style type="text/css">
	.st0{fill:url(#SVGID_1_);}
	.st1{fill:#429ED8;}
	.st2{fill:#53B264;}
	.st3{fill:#EB575C;}
	.st4{fill:#FFD64C;}
	.st5{fill:#8273B3;}
	.st6{fill:#FFFFFF;}
</style>
<linearGradient id="SVGID_1_" gradientUnits="userSpaceOnUse" x1="0" y1="125" x2="209" y2="125">
	<stop  offset="0" style="stop-color:#F8AD30"/>
	<stop  offset="0.1056" style="stop-color:#F6A032"/>
	<stop  offset="0.3189" style="stop-color:#F28B35"/>
	<stop  offset="0.5372" style="stop-color:#EF7B35"/>
	<stop  offset="0.7613" style="stop-color:#EE7136"/>
	<stop  offset="1" style="stop-color:#ED6D36"/>
</linearGradient>
<rect class="st0" width="209" height="250"/>
<g>
	<path class="st1" d="M184.5,59.3v-5.7c0.1-1.8-1.3-3.3-3.1-3.4c-1.8-0.1-3.3,1.3-3.4,3.1c0,0.1,0,0.2,0,0.3v11.5
		c2.4-0.3,4.6-1.2,6.5-2.7V59.3z"/>
	<path class="st2" d="M177.9,72v0.5c2.2-0.4,4.4-0.8,6.5-1.3v-8.8c-1.9,1.5-4.1,2.4-6.5,2.7V72z"/>
	<path class="st3" d="M177.9,77.9V87c2.2,0.7,4.3,0.6,6.5,0.9V77.8C182.3,77.2,180.1,77.2,177.9,77.9z"/>
	<path class="st4" d="M184.5,77.7v-6.5c-2.1,0.5-4.3,0.9-6.5,1.3v5.3C180.1,77.2,182.3,77.2,184.5,77.7z"/>
	<path class="st5" d="M177.9,87v2.6c-0.1,1.8,1.3,3.3,3.1,3.4s3.3-1.3,3.4-3.1c0-0.1,0-0.2,0-0.3v-1.7
		C182.3,87.6,180.1,87.6,177.9,87z"/>
	<path class="st2" d="M167.7,66.4v7.4c2.4,0,4.5,0,6.5-0.8v-6.9c0-0.2,0-0.5-0.1-0.7C172.2,66.1,170.1,67.3,167.7,66.4z"/>
	<path class="st1" d="M174.2,65.5c-0.4-1.8-2.1-2.9-3.9-2.5c-1.5,0.3-2.5,1.6-2.5,3.2v0.2C170.1,67.3,172.2,66.1,174.2,65.5z"/>
	<path class="st3" d="M167.7,79.7v7.1c2.1-0.3,4.4,0.5,6.5,0.4v-9C172.2,79.1,170,79.6,167.7,79.7z"/>
	<path class="st4" d="M174.2,78v-5c-2,0.7-4.1,0.8-6.5,0.8v5.9c2.2-0.2,4.4-0.7,6.5-1.5V78z"/>
	<path class="st5" d="M167.7,86.8v2.8c-0.1,1.8,1.3,3.3,3.1,3.4c1.8,0.1,3.3-1.3,3.4-3.1c0-0.1,0-0.2,0-0.3v-2.3
		C172.1,87.4,169.8,86.6,167.7,86.8z"/>
	<path class="st5" d="M157.5,88.3v1.2c0,0,0,0,0,0.1c0,1.8,1.5,3.2,3.3,3.2s3.2-1.5,3.2-3.3V87C161.9,87.7,159.5,87.7,157.5,88.3z"
		/>
	<path class="st4" d="M164,74.2v-0.3c-2.3-0.1-4.3-1.1-6.3-2c-0.2,0.4-0.3,0.9-0.3,1.3v8.2c2.2-0.3,4.4-0.8,6.5-1.5L164,74.2
		L164,74.2z"/>
	<path class="st3" d="M157.5,81.5v6.8c2.1-0.7,4.4-0.6,6.5-1.3v-7.1C161.9,80.7,159.7,81.2,157.5,81.5z"/>
	<path class="st2" d="M160.7,70c-1.3,0-2.5,0.8-3,2c2,0.8,4,1.8,6.3,2v-0.6C164,71.5,162.5,70,160.7,70z"/>
	<path class="st4" d="M153.8,82L153.8,82c0.1-1.8-1.3-3.3-3.1-3.4s-3.3,1.3-3.4,3.1c0,0.1,0,0.2,0,0.3v1.6c2.2,0.1,4.4-0.1,6.5-0.5
		V82z"/>
	<path class="st3" d="M147.3,83.6v6.2v0.1c0,0.1,0,0.1,0,0.2c2.3-0.9,4.6-0.7,6.5-1.2v-5.7C151.6,83.5,149.4,83.7,147.3,83.6z"/>
	<path class="st5" d="M147.3,90.1c0.2,1.8,1.8,3.1,3.6,2.9c1.7-0.2,2.9-1.6,2.9-3.2v-0.9C151.8,89.5,149.6,89.2,147.3,90.1z"/>
	<path class="st6" d="M61.6,65.4c2.3,1,3.4,2.2,3.4,3.7c-0.1,1-0.4,2-0.9,2.9c-0.6,1.3-1,2.5-1.4,3.5l-5.8,14.2
		c-0.4,1.4-1.4,2.6-2.7,3.3c-0.6,0.3-1.3,0.4-2,0.4c-0.9,0-1.7-0.4-2.4-0.9s-1.2-1.1-1.5-1.9l-0.4-0.9c-0.3-0.7-1.3-3.5-3.1-8.3
		c-0.4,0.8-0.9,2.2-1.6,4.2c-0.7,1.9-1.1,3.1-1.3,3.6s-0.3,0.8-0.4,1c-0.1,0.3-0.3,0.6-0.5,0.9c-0.2,0.4-0.5,0.8-0.8,1.1
		c-0.8,0.8-1.8,1.3-2.9,1.3c-1,0-2-0.3-2.8-0.9c-0.6-0.5-1.2-1.1-1.5-1.9l-8-19.6c-0.3-0.7-0.4-1.4-0.5-2.1c0-1.4,1-2.5,3-3.3
		c0.9-0.4,1.8-0.6,2.8-0.7c1.1,0,2.1,0.5,2.7,1.4c0.2,0.3,0.3,0.6,0.4,0.9c0.6,1.4,1.9,4.7,3.8,10l3.1-8.6c0.2-0.7,0.6-1.4,1.2-1.9
		c1.5-1.8,4-2.1,5.9-0.7c0.6,0.4,1.2,1,1.6,1.7l0.4,0.9c1.8,5,2.8,7.8,3.1,8.5l3.2-8.8c0.8-2.3,2.1-3.4,3.8-3.4
		C60.2,64.9,60.9,65.1,61.6,65.4z"/>
	<path class="st6" d="M90.9,68.7c-5.7-5.5-14.7-5.5-20.4,0c-2.9,2.7-4.6,6.5-4.5,10.5c0,2.7,0.8,5.4,2.3,7.6
		c1.4,2.1,3.3,3.9,5.6,5.1c2.1,1.1,4.4,1.7,6.8,1.7c2.4,0,4.7-0.6,6.8-1.6c2.3-1.2,4.2-2.9,5.6-5.1c1.5-2.3,2.3-5.1,2.3-7.8
		C95.4,75.2,93.8,71.4,90.9,68.7z M84.5,83.4c-1.1,0.9-2.5,1.4-3.9,1.5c-1.4,0-2.7-0.5-3.8-1.4c-1.3-1-1.9-2.4-1.9-4.3
		c0-1.9,0.6-3.3,1.8-4.3c1.1-0.9,2.5-1.5,3.9-1.5s2.8,0.5,3.9,1.4c1.2,0.9,1.8,2.4,1.8,4.3C86.4,81,85.8,82.4,84.5,83.4z"/>
	<path class="st5" d="M135.1,92.9c0.9,0.3,1.7,0.4,2.6,0.3c0.9,0,1.8-0.1,2.7-0.3c0.7-0.2,1.2-0.7,1.5-1.3c0.2-0.5,0.3-0.9,0.4-1.4
		c-2.8,0.4-5.5,1.2-8.4,2C134.2,92.5,134.6,92.8,135.1,92.9z"/>
	<path class="st6" d="M150.2,67.3c-0.4-1.3-1.9-2-4.3-2l-3.5,0.3v-2.9c0-0.9,0.7-1.3,2-1.3h1.5c0.9,0,1.7-0.3,2.3-1s0.9-2,0.9-3.7
		c0-2.3-0.5-3.6-1.4-4.1c-0.4-0.2-0.9-0.4-1.4-0.5c-0.6-0.1-1.2-0.1-1.8-0.1c-3.7,0-6.5,1.1-8.5,3.3c-1.9,2-2.9,4.7-2.9,7.4v2.8
		h-1.8c-2.1,0-3.1,1.5-3.1,4.4c0,1.9,0.3,3.2,1,3.9c0.6,0.4,1.3,0.6,2,0.6h1.9v14.1c0,0.2,0,0.3,0,0.5c3.2,0,6.5-0.6,9.3-2.5V74.4
		l3.4,0.2c1.1,0.1,2.2-0.2,3.2-0.6c0.5-0.3,0.9-0.8,1.1-1.4c0.3-0.9,0.4-1.7,0.3-2.6C150.5,69,150.4,68.1,150.2,67.3z"/>
	<path class="st3" d="M133.1,89c0,0.6,0,1,0.1,1.4c0.1,0.5,0.3,1,0.5,1.4c0.1,0.1,0.2,0.3,0.3,0.4c2.9-0.7,5.6-1.5,8.4-2
		c0.1-0.5,0.1-1,0.1-1.6v-2.1C139.6,88.5,136.3,89,133.1,89z"/>
	<path class="st6" d="M122.8,68.7c-5.7-5.5-14.7-5.5-20.4,0c-2.9,2.7-4.6,6.5-4.5,10.5c0,2.7,0.8,5.4,2.3,7.6
		c1.4,2.1,3.3,3.9,5.6,5.1c2.1,1.1,4.4,1.7,6.8,1.7c2.4,0,4.7-0.6,6.8-1.6c2.3-1.2,4.2-2.9,5.6-5.1c1.5-2.3,2.3-5.1,2.3-7.8
		C127.3,75.2,125.7,71.4,122.8,68.7z M116.4,83.4c-1.1,0.9-2.5,1.4-3.9,1.5c-1.4,0-2.7-0.5-3.8-1.4c-1.3-1-1.9-2.4-1.9-4.3
		c0-1.9,0.6-3.3,1.8-4.3c1.1-0.9,2.5-1.5,3.9-1.5s2.8,0.5,3.9,1.4c1.2,0.9,1.8,2.4,1.8,4.3S117.7,82.4,116.4,83.4z"/>
</g>
<g>
	<path class="st6" d="M38.2,149.2v11.7c0,1.5-0.8,2.4-2.2,2.4c-1.4,0-2.2-0.9-2.2-2.4v-11.7c0-1.5,0.8-2.4,2.2-2.4
		C37.3,146.9,38.2,147.8,38.2,149.2z"/>
	<path class="st6" d="M59.1,149.8v11c0,1.5-0.8,2.4-2.2,2.4s-2.2-0.9-2.2-2.4v-6.5h0l-2.8,4.8c-0.4,0.7-1.1,1.1-1.9,1.1
		s-1.5-0.4-1.9-1.1l-2.9-5h0v6.7c0,1.4-0.8,2.3-2.2,2.3s-2.2-0.9-2.2-2.3v-11c0-1.7,0.9-3.1,2.8-3.1c1.3,0,2.1,0.5,2.9,1.8l3.6,6.3
		l3.7-6.4c0.7-1.2,1.5-1.7,2.8-1.7C58.2,146.9,59.1,148.2,59.1,149.8z"/>
	<path class="st6" d="M76.7,154.5v6.4c0,1.5-0.8,2.4-2.2,2.4s-2.2-0.9-2.2-2.4v-2.1h-6.5v2.2c0,1.4-0.8,2.3-2.2,2.3
		s-2.2-0.9-2.2-2.3v-6.4c0-4.9,2.8-7.8,7.6-7.8C73.9,146.7,76.7,149.6,76.7,154.5z M72.2,154.3c0-2.3-1.2-3.6-3.3-3.6
		s-3.3,1.2-3.3,3.6v0.7h6.5V154.3z"/>
	<path class="st6" d="M92.5,153.7c1.5,0,2.4,0.9,2.4,2.4v0.4c0,4.2-3.2,7-7.9,7c-5,0-8.5-3.4-8.5-8.3s3.5-8.3,8.5-8.3
		c2.8,0,5,1,6.3,2.4c0.3,0.4,0.5,0.9,0.5,1.5c0,1.2-0.9,2.1-2.1,2.1c-0.7,0-1.2-0.2-1.7-0.7c-0.6-0.8-1.6-1.3-3-1.3
		c-2.4,0-4,1.8-4,4.3c0,2.5,1.6,4.3,4.1,4.3c1.7,0,2.8-0.6,3.3-1.7v0h-1.7c-1.3,0-2.1-0.7-2.1-2c0-1.2,0.8-2,2.1-2H92.5z"/>
	<path class="st6" d="M108.6,159.1c1.3,0,2.1,0.8,2.1,2s-0.8,2-2.1,2H99c-1.5,0-2.4-0.9-2.4-2.4v-11.4c0-1.5,0.9-2.4,2.4-2.4h9.6
		c1.3,0,2.1,0.8,2.1,2s-0.8,2-2.1,2h-7.5v2.1h5.8c1.3,0,2,0.7,2,1.9c0,1.2-0.7,1.9-2,1.9h-5.8v2.1H108.6z"/>
	<path class="st6" d="M133.3,149.2v11.4c0,1.6-1,2.7-2.5,2.7c-1,0-1.9-0.3-2.6-1.3l-5.8-8.1h0v7.1c0,1.4-0.8,2.3-2.2,2.3
		s-2.2-0.9-2.2-2.3v-11.4c0-1.6,1-2.7,2.5-2.7c1.1,0,1.9,0.4,2.5,1.3l5.8,8.1h0v-7.1c0-1.4,0.8-2.3,2.2-2.3S133.3,147.7,133.3,149.2
		z"/>
	<path class="st6" d="M143.8,146.7c5,0,8.5,3.4,8.5,8.3s-3.5,8.3-8.5,8.3c-5,0-8.5-3.4-8.5-8.3S138.8,146.7,143.8,146.7z
		 M143.8,159.3c2.4,0,4-1.8,4-4.3c0-2.5-1.6-4.3-4-4.3c-2.4,0-4,1.8-4,4.3C139.9,157.6,141.5,159.3,143.8,159.3z"/>
	<path class="st6" d="M169.6,149.2v11.4c0,1.6-1,2.7-2.5,2.7c-1,0-1.9-0.3-2.6-1.3l-5.8-8.1h0v7.1c0,1.4-0.8,2.3-2.2,2.3
		s-2.2-0.9-2.2-2.3v-11.4c0-1.6,1-2.7,2.5-2.7c1.1,0,1.9,0.4,2.5,1.3l5.8,8.1h0v-7.1c0-1.4,0.8-2.3,2.2-2.3
		C168.8,146.9,169.6,147.7,169.6,149.2z"/>
	<path class="st6" d="M36.4,175.8c5.7,0,8.9,2.9,8.9,8s-3.2,8-8.9,8h-4.2c-1.5,0-2.4-0.9-2.4-2.4v-11.4c0-1.5,0.9-2.4,2.4-2.4H36.4z
		 M36.6,187.9c2.7,0,4.2-1.5,4.2-4c0-2.5-1.5-4-4.2-4h-2.4v8H36.6z"/>
	<path class="st6" d="M51.7,178v11.7c0,1.5-0.8,2.4-2.2,2.4c-1.4,0-2.2-0.9-2.2-2.4V178c0-1.5,0.8-2.4,2.2-2.4
		C50.8,175.7,51.7,176.6,51.7,178z"/>
	<path class="st6" d="M61.2,181.8c4.9,0,6.7,1.6,6.7,4.9c0,3.6-2.5,5.5-7.2,5.5c-2.9,0-5-0.7-6.5-2.1c-0.4-0.4-0.7-0.9-0.7-1.6
		c0-1.2,0.8-2,1.9-2c0.7,0,1.2,0.3,1.6,0.6c1.1,0.9,2.3,1.2,3.9,1.2c1.8,0,2.6-0.5,2.6-1.4c0-0.7-0.7-1.1-3.1-1.1
		c-4.8,0-6.7-1.6-6.7-4.8c0-3.4,2.7-5.5,7.2-5.5c2.1,0,3.8,0.5,5.3,1.4c0.6,0.4,1,1,1,1.9c0,1.2-0.8,2-1.9,2c-0.6,0-1.1-0.3-1.5-0.5
		c-1-0.6-2-0.9-3.2-0.9c-1.5,0-2.4,0.5-2.4,1.4C58.2,181.4,58.9,181.8,61.2,181.8z"/>
	<path class="st6" d="M78.3,175.8c3.7,0,5.8,1.9,5.8,5.4c0,3.6-2,5.5-5.8,5.5h-4.1v3c0,1.4-0.8,2.3-2.2,2.3c-1.4,0-2.2-0.9-2.2-2.3
		v-11.5c0-1.5,0.9-2.4,2.4-2.4H78.3z M77.8,182.7c1.1,0,1.8-0.5,1.8-1.5c0-0.9-0.6-1.4-1.8-1.4h-3.6v2.9H77.8z"/>
	<path class="st6" d="M93.7,175.5c5,0,8.5,3.4,8.5,8.3s-3.5,8.3-8.5,8.3s-8.5-3.4-8.5-8.3S88.6,175.5,93.7,175.5z M93.7,188.1
		c2.4,0,4-1.8,4-4.3c0-2.5-1.6-4.3-4-4.3s-4,1.8-4,4.3C89.7,186.4,91.3,188.1,93.7,188.1z"/>
	<path class="st6" d="M119.4,178v11.4c0,1.6-1,2.7-2.5,2.7c-1,0-1.9-0.3-2.6-1.3l-5.8-8.1h0v7.1c0,1.4-0.8,2.3-2.2,2.3
		c-1.3,0-2.2-0.9-2.2-2.3v-11.4c0-1.6,1-2.7,2.5-2.7c1.1,0,1.9,0.4,2.5,1.3l5.8,8.1h0V178c0-1.4,0.8-2.3,2.2-2.3
		S119.4,176.5,119.4,178z"/>
	<path class="st6" d="M126.4,178v11.7c0,1.5-0.8,2.4-2.2,2.4c-1.4,0-2.2-0.9-2.2-2.4V178c0-1.5,0.8-2.4,2.2-2.4
		C125.5,175.7,126.4,176.6,126.4,178z"/>
	<path class="st6" d="M141.2,183.8c1.6,0.6,2.3,1.8,2.3,3.5c0,3.2-1.7,4.6-5.5,4.6h-6.8c-1.5,0-2.4-0.9-2.4-2.4v-11.4
		c0-1.5,0.9-2.4,2.4-2.4h6.3c3.8,0,5.5,1.4,5.5,4.6C143.1,181.9,142.5,183,141.2,183.8L141.2,183.8z M137.3,182
		c0.8,0,1.3-0.4,1.3-1.1c0-0.7-0.5-1.1-1.3-1.1h-4.1v2.2H137.3z M137.7,187.9c0.8,0,1.3-0.4,1.3-1.1s-0.5-1.1-1.3-1.1h-4.5v2.2
		H137.7z"/>
	<path class="st6" d="M156.9,187.9c1.3,0,2.1,0.8,2.1,2c0,1.2-0.8,2-2.1,2h-9.2c-1.5,0-2.4-0.9-2.4-2.4V178c0-1.4,0.8-2.3,2.2-2.3
		c1.4,0,2.2,0.9,2.2,2.3v9.9H156.9z"/>
	<path class="st6" d="M172.2,187.9c1.3,0,2.1,0.8,2.1,2c0,1.2-0.8,2-2.1,2h-9.6c-1.5,0-2.4-0.9-2.4-2.4v-11.4c0-1.5,0.9-2.4,2.4-2.4
		h9.6c1.3,0,2.1,0.8,2.1,2s-0.8,2-2.1,2h-7.5v2.1h5.8c1.3,0,2,0.7,2,1.9c0,1.2-0.7,1.9-2,1.9h-5.8v2.1H172.2z"/>
</g>
</svg>
