<?xml version="1.0" encoding="utf-8"?>
<!-- Generator: Adobe Illustrator 26.0.2, SVG Export Plug-In . SVG Version: 6.00 Build 0)  -->
<svg version="1.1" id="Calque_1" xmlns="http://www.w3.org/2000/svg" xmlns:xlink="http://www.w3.org/1999/xlink" x="0px" y="0px"
	 viewBox="0 0 1000 225" style="enable-background:new 0 0 1000 225;" xml:space="preserve">
<style type="text/css">
	.st0{fill:#F8AD30;stroke:#000000;stroke-miterlimit:10;}
	.st1{fill:#419ED8;}
	.st2{fill:#51B263;}
	.st3{fill:#EA555B;}
	.st4{fill:#FFD64B;}
	.st5{fill:#8273B3;}
	.st6{fill:#FFFFFF;}
</style>
<rect class="st0" width="1000" height="225"/>
<g>
	<path class="st1" d="M698.9,148.9v-5.7c0.1-1.8-1.3-3.3-3.1-3.4c-1.8-0.1-3.3,1.3-3.4,3.1c0,0.1,0,0.2,0,0.3v11.5
		c2.4-0.3,4.6-1.2,6.5-2.7V148.9z"/>
	<path class="st2" d="M692.3,161.6v0.5c2.2-0.4,4.4-0.8,6.5-1.3V152c-1.9,1.5-4.1,2.4-6.5,2.7V161.6z"/>
	<path class="st3" d="M692.3,167.5v9.1c2.2,0.7,4.3,0.6,6.5,0.9v-10.1C696.7,166.8,694.5,166.8,692.3,167.5z"/>
	<path class="st4" d="M698.9,167.3v-6.5c-2.1,0.5-4.3,0.9-6.5,1.3v5.3C694.5,166.8,696.7,166.8,698.9,167.3z"/>
	<path class="st5" d="M692.3,176.6v2.6c-0.1,1.8,1.3,3.3,3.1,3.4s3.3-1.3,3.4-3.1c0-0.1,0-0.2,0-0.3v-1.7
		C696.7,177.2,694.5,177.2,692.3,176.6z"/>
	<path class="st2" d="M682.1,156v7.4c2.4,0,4.5,0,6.5-0.8v-6.9c0-0.2,0-0.5-0.1-0.7C686.6,155.7,684.5,156.9,682.1,156z"/>
	<path class="st1" d="M688.6,155.1c-0.4-1.8-2.1-2.9-3.9-2.5c-1.5,0.3-2.5,1.6-2.5,3.2v0.2C684.5,156.9,686.6,155.7,688.6,155.1z"/>
	<path class="st3" d="M682.1,169.3v7.1c2.1-0.3,4.4,0.5,6.5,0.4v-9C686.6,168.7,684.4,169.2,682.1,169.3z"/>
	<path class="st4" d="M688.6,167.6v-5c-2,0.7-4.1,0.8-6.5,0.8v5.9c2.2-0.2,4.4-0.7,6.5-1.5V167.6z"/>
	<path class="st5" d="M682.1,176.4v2.8c-0.1,1.8,1.3,3.3,3.1,3.4c1.8,0.1,3.3-1.3,3.4-3.1c0-0.1,0-0.2,0-0.3v-2.3
		C686.5,177,684.2,176.2,682.1,176.4z"/>
	<path class="st5" d="M671.9,177.9v1.2c0,0,0,0,0,0.1c0,1.8,1.5,3.2,3.3,3.2c1.8,0,3.2-1.5,3.2-3.3v-2.5
		C676.3,177.3,673.9,177.3,671.9,177.9z"/>
	<path class="st4" d="M678.4,163.8v-0.3c-2.3-0.1-4.3-1.1-6.3-2c-0.2,0.4-0.3,0.9-0.3,1.3v8.2c2.2-0.3,4.4-0.8,6.5-1.5V163.8z"/>
	<path class="st3" d="M671.9,171.1v6.8c2.1-0.7,4.4-0.6,6.5-1.3v-7.1C676.3,170.3,674.1,170.8,671.9,171.1z"/>
	<path class="st2" d="M675.1,159.6c-1.3,0-2.5,0.8-3,2c2,0.8,4,1.8,6.3,2v-0.6C678.4,161.1,676.9,159.6,675.1,159.6z"/>
	<path class="st4" d="M668.2,171.6L668.2,171.6c0.1-1.8-1.3-3.3-3.1-3.4s-3.3,1.3-3.4,3.1c0,0.1,0,0.2,0,0.3v1.6
		c2.2,0.1,4.4-0.1,6.5-0.5V171.6z"/>
	<path class="st3" d="M661.7,173.2v6.2c0,0,0,0.1,0,0.1c0,0.1,0,0.1,0,0.2c2.3-0.9,4.6-0.7,6.5-1.2v-5.7
		C666,173.1,663.8,173.3,661.7,173.2z"/>
	<path class="st5" d="M661.7,179.7c0.2,1.8,1.8,3.1,3.6,2.9c1.7-0.2,2.9-1.6,2.9-3.2v-0.9C666.2,179.1,664,178.8,661.7,179.7z"/>
	<path class="st6" d="M576,155c2.3,1,3.4,2.2,3.4,3.7c-0.1,1-0.4,2-0.9,2.9c-0.6,1.3-1,2.5-1.4,3.5l-5.8,14.2
		c-0.4,1.4-1.4,2.6-2.7,3.3c-0.6,0.3-1.3,0.4-2,0.4c-0.9,0-1.7-0.4-2.4-0.9c-0.7-0.5-1.2-1.1-1.5-1.9l-0.4-0.9
		c-0.3-0.7-1.3-3.5-3.1-8.3c-0.4,0.8-0.9,2.2-1.6,4.2c-0.7,1.9-1.1,3.1-1.3,3.6c-0.2,0.5-0.3,0.8-0.4,1c-0.1,0.3-0.3,0.6-0.5,0.9
		c-0.2,0.4-0.5,0.8-0.8,1.1c-0.8,0.8-1.8,1.3-2.9,1.3c-1,0-2-0.3-2.8-0.9c-0.6-0.5-1.2-1.1-1.5-1.9l-8-19.6
		c-0.3-0.7-0.4-1.4-0.5-2.1c0-1.4,1-2.5,3-3.3c0.9-0.4,1.8-0.6,2.8-0.7c1.1,0,2.1,0.5,2.7,1.4c0.2,0.3,0.3,0.6,0.4,0.9
		c0.6,1.4,1.9,4.7,3.8,10l3.1-8.6c0.2-0.7,0.6-1.4,1.2-1.9c1.5-1.8,4-2.1,5.9-0.7c0.6,0.4,1.2,1,1.6,1.7l0.4,0.9
		c1.8,5,2.8,7.8,3.1,8.5l3.2-8.8c0.8-2.3,2.1-3.4,3.8-3.4C574.6,154.5,575.3,154.7,576,155z"/>
	<path class="st6" d="M605.3,158.3c-5.7-5.5-14.7-5.5-20.4,0c-2.9,2.7-4.6,6.5-4.5,10.5c0,2.7,0.8,5.4,2.3,7.6
		c1.4,2.1,3.3,3.9,5.6,5.1c2.1,1.1,4.4,1.7,6.8,1.7c2.4,0,4.7-0.6,6.8-1.6c2.3-1.2,4.2-2.9,5.6-5.1c1.5-2.3,2.3-5.1,2.3-7.8
		C609.8,164.8,608.2,161,605.3,158.3z M598.9,173c-1.1,0.9-2.5,1.4-3.9,1.5c-1.4,0-2.7-0.5-3.8-1.4c-1.3-1-1.9-2.4-1.9-4.3
		c0-1.9,0.6-3.3,1.8-4.3c1.1-0.9,2.5-1.5,3.9-1.5c1.4,0,2.8,0.5,3.9,1.4c1.2,0.9,1.8,2.4,1.8,4.3C600.8,170.6,600.2,172,598.9,173z"
		/>
	<path class="st5" d="M649.5,182.5c0.9,0.3,1.7,0.4,2.6,0.3c0.9,0,1.8-0.1,2.7-0.3c0.7-0.2,1.2-0.7,1.5-1.3c0.2-0.5,0.3-0.9,0.4-1.4
		c-2.8,0.4-5.5,1.2-8.4,2C648.6,182.1,649,182.4,649.5,182.5z"/>
	<path class="st6" d="M664.6,156.9c-0.4-1.3-1.9-2-4.3-2l-3.5,0.3v-2.9c0-0.9,0.7-1.3,2-1.3h1.5c0.9,0,1.7-0.3,2.3-1
		c0.6-0.7,0.9-2,0.9-3.7c0-2.3-0.5-3.6-1.4-4.1c-0.4-0.2-0.9-0.4-1.4-0.5c-0.6-0.1-1.2-0.1-1.8-0.1c-3.7,0-6.5,1.1-8.5,3.3
		c-1.9,2-2.9,4.7-2.9,7.4v2.8h-1.8c-2.1,0-3.1,1.5-3.1,4.4c0,1.9,0.3,3.2,1,3.9c0.6,0.4,1.3,0.6,2,0.6h1.9v14.1c0,0.2,0,0.3,0,0.5
		c3.2,0,6.5-0.6,9.3-2.5V164l3.4,0.2c1.1,0.1,2.2-0.2,3.2-0.6c0.5-0.3,0.9-0.8,1.1-1.4c0.3-0.9,0.4-1.7,0.3-2.6
		C664.9,158.6,664.8,157.7,664.6,156.9z"/>
	<path class="st3" d="M647.5,178.6c0,0.6,0,1,0.1,1.4c0.1,0.5,0.3,1,0.5,1.4c0.1,0.1,0.2,0.3,0.3,0.4c2.9-0.7,5.6-1.5,8.4-2
		c0.1-0.5,0.1-1,0.1-1.6v-2.1C654,178.1,650.7,178.6,647.5,178.6z"/>
	<path class="st6" d="M637.2,158.3c-5.7-5.5-14.7-5.5-20.4,0c-2.9,2.7-4.6,6.5-4.5,10.5c0,2.7,0.8,5.4,2.3,7.6
		c1.4,2.1,3.3,3.9,5.6,5.1c2.1,1.1,4.4,1.7,6.8,1.7c2.4,0,4.7-0.6,6.8-1.6c2.3-1.2,4.2-2.9,5.6-5.1c1.5-2.3,2.3-5.1,2.3-7.8
		C641.7,164.8,640.1,161,637.2,158.3z M630.8,173c-1.1,0.9-2.5,1.4-3.9,1.5c-1.4,0-2.7-0.5-3.8-1.4c-1.3-1-1.9-2.4-1.9-4.3
		c0-1.9,0.6-3.3,1.8-4.3c1.1-0.9,2.5-1.5,3.9-1.5c1.4,0,2.8,0.5,3.9,1.4c1.2,0.9,1.8,2.4,1.8,4.3S632.1,172,630.8,173z"/>
</g>
</svg>
