<svg xmlns="http://www.w3.org/2000/svg" width="100mm" height="30mm" viewBox="0 0 283.465 85.039">
  <g>
    <path d="M273.7,21.367V11.718a5.5,5.5,0,1,0-10.991,0V31.037A22.523,22.523,0,0,0,273.7,26.505V21.367Z" fill="#00a6fc"/>
    <path d="M262.71,42.757v.922c3.77-.693,7.42-1.406,10.991-2.221V26.505a22.523,22.523,0,0,1-10.991,4.532Z" fill="#30c763"/>
    <path d="M262.71,52.617V67.9c3.664,1.116,7.327,1.093,10.991,1.539V52.378A20.422,20.422,0,0,0,262.71,52.617Z" fill="#ff5257"/>
    <path d="M273.7,52.378V41.458c-3.571.815-7.221,1.528-10.991,2.221v8.938A20.422,20.422,0,0,1,273.7,52.378Z" fill="#ffd64a"/>
    <path d="M262.71,67.9v4.4a5.5,5.5,0,1,0,10.991,0V69.439C270.037,68.993,266.374,69.016,262.71,67.9Z" fill="#9c73f2"/>
    <path d="M245.477,33.226V45.77c4.022,0,7.563-.074,10.991-1.32V32.863a5.523,5.523,0,0,0-.128-1.172C252.951,32.765,249.449,34.82,245.477,33.226Z" fill="#30c763"/>
    <path d="M256.34,31.691a5.5,5.5,0,0,0-10.863,1.172v.363C249.449,34.82,252.951,32.765,256.34,31.691Z" fill="#00a6fc"/>
    <path d="M245.477,55.744V67.653c3.458-.435,7.369.914,10.991.717V53.194A37.333,37.333,0,0,1,245.477,55.744Z" fill="#ff5257"/>
    <path d="M256.468,52.8V44.45c-3.428,1.246-6.969,1.316-10.991,1.32v9.974a37.333,37.333,0,0,0,10.991-2.55Z" fill="#ffd64a"/>
    <path d="M245.477,67.653V72.3a5.5,5.5,0,1,0,10.991,0V68.37C252.846,68.567,248.935,67.218,245.477,67.653Z" fill="#9c73f2"/>
    <path d="M228.245,70.2v2.1c0,.031,0,.06,0,.09a5.494,5.494,0,0,0,10.987-.09V68.09C235.625,69.232,231.714,69.07,228.245,70.2Z" fill="#9c73f2"/>
    <path d="M239.236,46.359v-.426c-3.793-.173-7.185-1.858-10.531-3.29a5.486,5.486,0,0,0-.46,2.2V58.666a56.582,56.582,0,0,0,10.991-2.6Z" fill="#ffd64a"/>
    <path d="M228.245,58.666V70.2c3.469-1.132,7.38-.97,10.991-2.112V56.061A56.582,56.582,0,0,1,228.245,58.666Z" fill="#ff5257"/>
    <path d="M233.74,39.346a5.5,5.5,0,0,0-5.035,3.3c3.346,1.432,6.738,3.117,10.531,3.29V44.842A5.5,5.5,0,0,0,233.74,39.346Z" fill="#30c763"/>
    <path d="M222,59.539v-.018a5.5,5.5,0,1,0-10.991,0v2.735A58.921,58.921,0,0,0,222,61.491Z" fill="#ffd64a"/>
    <path d="M211.012,62.256V72.7c0,.058.007.114.009.172,0,.113.017.224.027.335,3.838-1.5,7.668-1.105,10.955-2.042V61.491A58.921,58.921,0,0,1,211.012,62.256Z" fill="#ff5257"/>
    <path d="M211.048,73.205A5.489,5.489,0,0,0,222,72.7V71.163C218.716,72.1,214.886,71.709,211.048,73.205Z" fill="#9c73f2"/>
    <path d="M66.605,31.609q5.733,2.514,5.731,6.18A14.479,14.479,0,0,1,70.9,42.671q-1.431,3.357-2.419,5.867l-9.849,24a9.244,9.244,0,0,1-4.478,5.553,8.1,8.1,0,0,1-3.4.626,6.253,6.253,0,0,1-3.982-1.567,8.041,8.041,0,0,1-2.554-3.177L43.5,72.447q-.721-1.793-5.283-13.969-.9,2.142-2.641,7.024c-1.166,3.258-1.913,5.284-2.241,6.093s-.536,1.34-.627,1.61a9.462,9.462,0,0,1-.762,1.479,9.1,9.1,0,0,1-1.431,1.88,6.766,6.766,0,0,1-4.927,2.15,7.028,7.028,0,0,1-4.653-1.567,8.15,8.15,0,0,1-2.51-3.177L4.907,41.017a14.91,14.91,0,0,1-.892-3.5q0-3.574,5.1-5.64a13.225,13.225,0,0,1,4.656-1.166A5.109,5.109,0,0,1,18.25,33a8.134,8.134,0,0,1,.718,1.567q1.52,3.585,6.358,16.834L30.61,36.893a7.028,7.028,0,0,1,1.967-3.134,7.246,7.246,0,0,1,9.9-1.159,8.571,8.571,0,0,1,2.642,2.864l.718,1.523q4.476,12.538,5.283,14.327l5.462-14.866q2.148-5.727,6.445-5.735A8.445,8.445,0,0,1,66.605,31.609Z"/>
    <path d="M115.983,37.118a24.6,24.6,0,0,0-34.294.044,23.151,23.151,0,0,0-7.524,17.73,22.578,22.578,0,0,0,3.808,12.855,25.375,25.375,0,0,0,9.357,8.591,24.317,24.317,0,0,0,11.463,2.916,25.387,25.387,0,0,0,11.415-2.733,24.108,24.108,0,0,0,9.357-8.512,23.232,23.232,0,0,0,3.851-13.2A23.14,23.14,0,0,0,115.983,37.118Zm-10.749,24.84a10.782,10.782,0,0,1-6.541,2.476,10.517,10.517,0,0,1-6.443-2.429q-3.175-2.432-3.174-7.236t3.073-7.284A10.381,10.381,0,0,1,98.793,45a10.663,10.663,0,0,1,6.639,2.38q3.073,2.383,3.074,7.237T105.234,61.958Z"/>
    <path d="M190.492,77.949a13.572,13.572,0,0,0,4.434.583A15.823,15.823,0,0,0,199.448,78a4.252,4.252,0,0,0,2.6-2.193,7.8,7.8,0,0,0,.682-2.419c-4.752.718-9.348,2.08-14.186,3.292A4.416,4.416,0,0,0,190.492,77.949Z" fill="#9c73f2"/>
    <path d="M215.968,34.743q-1.077-3.4-7.254-3.4l-5.819.532V26.953c0-1.487,1.1-2.237,3.312-2.237h2.507a5.483,5.483,0,0,0,3.942-1.611q1.519-1.88,1.523-6.179,0-5.728-2.419-6.894a7.252,7.252,0,0,0-2.372-.853,26.775,26.775,0,0,0-3.09-.131q-9.314,0-14.239,5.6a18.44,18.44,0,0,0-4.923,12.49v4.744h-2.955q-5.285,0-5.283,7.346,0,4.831,1.7,6.536a5.513,5.513,0,0,0,3.312,1.071h3.224V70.567c0,.3,0,.573.007.84,5.475-.082,10.914-.939,15.752-4.267v-20.4l5.731.357a11.223,11.223,0,0,0,5.462-1.071,4.214,4.214,0,0,0,1.837-2.376,13.753,13.753,0,0,0,.582-4.43A15.344,15.344,0,0,0,215.968,34.743Z"/>
    <path d="M187.143,71.407c.015.961.056,1.729.124,2.294a6.749,6.749,0,0,0,.853,2.368,3.75,3.75,0,0,0,.422.611c4.838-1.212,9.434-2.574,14.186-3.292a19.007,19.007,0,0,0,.167-2.646v-3.6C198.057,70.468,192.618,71.325,187.143,71.407Z" fill="#ff5257"/>
    <path d="M169.769,37.118a24.6,24.6,0,0,0-34.294.044,23.148,23.148,0,0,0-7.524,17.73,22.578,22.578,0,0,0,3.808,12.855,25.372,25.372,0,0,0,9.356,8.591,24.323,24.323,0,0,0,11.463,2.916,25.388,25.388,0,0,0,11.416-2.733,24.1,24.1,0,0,0,9.356-8.512,23.225,23.225,0,0,0,3.852-13.2A23.14,23.14,0,0,0,169.769,37.118ZM159.02,61.958a10.785,10.785,0,0,1-6.542,2.476,10.516,10.516,0,0,1-6.442-2.429q-3.175-2.432-3.174-7.236t3.073-7.284A10.379,10.379,0,0,1,152.578,45a10.664,10.664,0,0,1,6.64,2.38q3.073,2.383,3.073,7.237T159.02,61.958Z"/>
  </g>
</svg>
